<svg id="Layer_1" data-name="Layer 1" xmlns="http://www.w3.org/2000/svg" viewBox="0 0 937.07 319.86"><defs><style>.cls-1,.cls-2,.cls-3,.cls-5{fill:#fff;}.cls-1,.cls-2,.cls-5{stroke:#fff;}.cls-1{stroke-width:2px;}.cls-2{stroke-width:3px;}.cls-4{fill:#ed1c24;}.cls-5{stroke-width:4px;}</style></defs><title>sophieyoung-design-logo-white</title><path class="cls-1" d="M246,281.2c0-9.8,2.8-17.8,8.5-24s13.2-9.3,22.5-9.3c9.8,0,17.4,3,22.8,8.9s8.1,14,8.1,24.3-2.8,18.4-8.3,24.5-13.1,9.1-22.6,9.1c-9.8,0-17.4-3.1-22.8-9.2S246,291.3,246,281.2Zm15.7,0q0,21.3,15.3,21.3a13,13,0,0,0,11.1-5.5c2.7-3.7,4.1-8.9,4.1-15.7q0-21-15.3-21a13.26,13.26,0,0,0-11.2,5.5C263,269.4,261.7,274.6,261.7,281.2Z" transform="translate(-14.52 -19.94)"/><path class="cls-1" d="M333.7,311.9v26.9h-15V249.2h15v4.3a19.08,19.08,0,0,1,13.9-5.5q30.75,0,30.8,33.9c0,10.5-2.8,18.7-8.5,24.3s-13.4,8.5-23.2,8.5A29.16,29.16,0,0,1,333.7,311.9Zm0-47v33.8a14.73,14.73,0,0,0,9.6,3.3c6.9,0,11.9-1.7,14.9-5s4.5-8.5,4.5-15.7c0-7.6-1.5-13-4.5-16.1s-8-4.7-14.9-4.7A14.28,14.28,0,0,0,333.7,264.9Z" transform="translate(-14.52 -19.94)"/><path class="cls-1" d="M433.3,313.5V273.8c0-4-1.2-7.2-3.7-9.6a13.37,13.37,0,0,0-9.7-3.6,16.21,16.21,0,0,0-7.5,2,14,14,0,0,0-5.4,4.6v46.2H391.7V225l15.3-3.6v31.7c3.9-3.5,9.2-5.3,16-5.3,8.1,0,14.3,2.2,18.8,6.7s6.7,10.9,6.7,19.2v39.7l-15.2.1h0Z" transform="translate(-14.52 -19.94)"/><path class="cls-1" d="M468.6,313.5V261.4h-8.2V249.1h23.4v64.4H468.6Zm7.8-89.3a8.88,8.88,0,1,1-6.2,2.6A8.54,8.54,0,0,1,476.4,224.2Z" transform="translate(-14.52 -19.94)"/><path class="cls-1" d="M558.8,285.9h-46c0.3,5.1,2,9.1,5.3,12s7.6,4.3,13.1,4.3q10.35,0,15.6-5.4l5.8,11.5c-5.3,4.3-13.2,6.4-23.7,6.4-9.8,0-17.6-2.9-23.3-8.6S497,292.3,497,282c0-10.1,3.1-18.4,9.4-24.6A30.74,30.74,0,0,1,529,248q13.95,0,22.5,8.4c5.6,5.6,8.5,12.7,8.5,21.3A44.06,44.06,0,0,1,558.8,285.9Zm-45.5-11.3h31.6c-1-9.4-6.3-14.1-15.6-14.1C520.7,260.5,515.4,265.2,513.3,274.6Z" transform="translate(-14.52 -19.94)"/><path class="cls-1" d="M570.5,284.9V270.8h31.8v14.1H570.5Z" transform="translate(-14.52 -19.94)"/><path class="cls-1" d="M645.7,323.9c-1.6,4.3-5,7.8-10.3,10.7a38.72,38.72,0,0,1-18.4,4.2V325.5q17.4,0,17.4-8.7,0-5.7-4.8-17.7l-20.1-49.9H625l17.6,44.5,15.8-44.5H674Z" transform="translate(-14.52 -19.94)"/><path class="cls-1" d="M678.7,281.2c0-9.8,2.8-17.8,8.5-24s13.2-9.3,22.4-9.3c9.8,0,17.4,3,22.8,8.9s8.1,14,8.1,24.3-2.8,18.4-8.3,24.5-13.1,9.1-22.6,9.1c-9.8,0-17.4-3.1-22.8-9.2S678.7,291.3,678.7,281.2Zm15.7,0q0,21.3,15.3,21.3a13.26,13.26,0,0,0,11.2-5.5c2.7-3.7,4.1-8.9,4.1-15.7q0-21-15.3-21a13.26,13.26,0,0,0-11.2,5.5C695.8,269.4,694.4,274.6,694.4,281.2Z" transform="translate(-14.52 -19.94)"/><path class="cls-1" d="M794.1,313.6v-5.4a26.69,26.69,0,0,1-8.8,4.6,31.38,31.38,0,0,1-10.3,1.9c-14.9,0-22.4-7.9-22.4-23.8V249.1h15v40.6c0,8.3,3.7,12.4,11.1,12.4a18.58,18.58,0,0,0,9.5-2.6c2.9-1.8,4.9-3.8,5.8-6.1V249.2h15v64.4H794.1Z" transform="translate(-14.52 -19.94)"/><path class="cls-1" d="M866.8,313.5V276.3c0-5.5-1.1-9.5-3.2-12s-5.5-3.8-10.3-3.8a15.44,15.44,0,0,0-7.1,1.9,16.41,16.41,0,0,0-5.9,4.6v46.5h-15V249.1h10.8l2.8,6c4.1-4.8,10.1-7.2,18.1-7.2,7.7,0,13.7,2.3,18.1,6.9s6.6,11,6.6,19.2v39.5H866.8Z" transform="translate(-14.52 -19.94)"/><path class="cls-1" d="M893.2,330.1l9.5-11.7a25.34,25.34,0,0,0,17.6,7.2,25.63,25.63,0,0,0,10.7-1.9c2.8-1.3,4.2-3,4.2-5.3q0-5.7-9.3-5.7a67.82,67.82,0,0,0-7.5.6,67.82,67.82,0,0,1-7.5.6c-10.3,0-15.5-3.7-15.5-11.1a10.1,10.1,0,0,1,2.6-6.3,15.35,15.35,0,0,1,6-4.5c-7.3-4.8-11-11.5-11-20.3a21.77,21.77,0,0,1,7.6-17.1,27.17,27.17,0,0,1,18.6-6.8,30.19,30.19,0,0,1,14.5,3.2l5.9-6.9,10.4,9.4-7.2,5.2a23.54,23.54,0,0,1,3.7,13.3c0,7.3-2.2,13.2-6.7,17.6a23.15,23.15,0,0,1-16.9,6.6,40.47,40.47,0,0,1-4.3-.3l-2.5-.4a12.76,12.76,0,0,0-3.2,1.3c-1.9.9-2.8,1.8-2.8,2.7,0,1.6,1.4,2.4,4.1,2.4a37.92,37.92,0,0,0,6.3-.9,37.82,37.82,0,0,1,7.5-.9c14.6,0,21.9,5.9,21.9,17.6,0,6.5-2.9,11.6-8.8,15.3s-12.9,5.6-21.2,5.6A43,43,0,0,1,893.2,330.1Zm15-58.3a13.2,13.2,0,0,0,3.2,9.2,10.93,10.93,0,0,0,8.5,3.5c3.6,0,6.3-1.1,8.2-3.4s2.9-5.3,2.9-9.3a11.48,11.48,0,0,0-3.1-8.2,10.56,10.56,0,0,0-8-3.4A11.14,11.14,0,0,0,908.2,271.8Z" transform="translate(-14.52 -19.94)"/><path class="cls-2" d="M184.3,55.3c-31.1-18.5-61.4-.8-83.2,18.1-2.8,12.3-1.4,28.8-9,36.2-12-7.3-.3-26.3,0-38C115.8,54.9,158.3,12.8,184.3,55.3Z" transform="translate(-14.52 -19.94)"/><path class="cls-3" d="M140.1,84.3c-0.8,4.4,3.3,3.9,1.8,9-5.8-.4-7.7,3.2-14.5,1.8C126,85.9,133.3,85.3,140.1,84.3Z" transform="translate(-14.52 -19.94)"/><path class="cls-4" d="M124.6,192.8c-7.1,12.7-16.8,27.8-19.9,39.1C65.5,250.8,37,216.8,37.8,187.7c18.3-.2,34.4-15.2,47-1.7C101.8,178.5,111,188.2,124.6,192.8ZM50.4,203c11.3,15.7,58.5,15.1,63.3-3.4C89.4,202.4,61.7,193.7,50.4,203Z" transform="translate(-14.52 -19.94)"/><path class="cls-3" d="M158.9,93.3a5.57,5.57,0,0,0,.3-2.4,4.75,4.75,0,0,1-.6,2.4h0.3Z" transform="translate(-14.52 -19.94)"/><path class="cls-5" d="M283,142.5s-2.3-9.7-10-38.3c-6.6-24.6-26.4-67.7-32.7-82-2.2-2.2-7.8,10.4-7.8,10.4s18.1,45.1,27.1,75.9c9.2,31.7,16.6,65.7,15.5,76.8-1.9,17.9-7.6,36.7-22.5,40.3a67,67,0,0,1-9,.5c-2.3.2-16.7-4.3-17.6-4.5-11.6-2.5-25.5,2.6-30.1,10.7-1.9,2.5-2.6,6.3-2.9,9.2-1.9,21,21.4,23.9,27,43.2,1.7,5.8,2.3,10.9-.9,16-13.5,16-32.6,3.2-37.1-5.2-2.2-4.2-4.4-7.9-5.1-9.2-0.4-.9-14.2,5.8-14.2,6.4,1.9,6.2,12.1,17.7,20.9,23,15.9,9.7,36,8.5,45.6-7.4,4.2-5.7,5.7-13.2,4.7-20.6-2.3-18.2-20-22.9-27.1-36.1-1.8-5.7-1.3-10.9.8-14.8,4.4-5.3,11.6-6.6,21.6-2.2,19.1,11.7,42.1-.5,52.8-18.4C297.7,189.8,283,142.5,283,142.5Z" transform="translate(-14.52 -19.94)"/><path class="cls-2" d="M224.1,78.9c-1.9,4.9-19.1,13.3-25.3,1.8,2.6-13.4,15.5-31.4,9-38-10.8,8.5-15.2,23.4-21.7,36.2-30.6-16.9-59.8.3-70.6,23.5,8.5,1.9,9.1-4.2,12.7-7.2,5.8,26.3,59.1,18.6,48.8-10.8,21.2,1.2,16.9,34.3,12.7,52.5C177.9,187.7,129.7,262.3,83,269c-41.5,6-40.7-28.6-65.1-34.4,17.7,26.4,33,52.8,76,43.4,59.4-12.9,117.7-99.3,108.6-175.5C216.8,108.6,229.8,92.8,224.1,78.9Z" transform="translate(-14.52 -19.94)"/></svg>