<svg id="Layer_1" xmlns="http://www.w3.org/2000/svg" viewBox="0 0 937.1 319.9"><style>.st0,.st1{stroke:#fff}.st0{fill:#fff;stroke-width:2}.st1{stroke-width:3}.st1,.st2{fill:#fff}.st3{fill:#ed1c24}.st4{fill:#fff;stroke:#fff;stroke-width:4}</style><title>sophieyoung-design-logo-white</title><path class="st0" d="M231.5 261.3c0-9.8 2.8-17.8 8.5-24 5.7-6.2 13.2-9.3 22.5-9.3 9.8 0 17.4 3 22.8 8.9 5.4 5.9 8.1 14 8.1 24.3s-2.8 18.4-8.3 24.5-13.1 9.1-22.6 9.1c-9.8 0-17.4-3.1-22.8-9.2s-8.2-14.2-8.2-24.3zm15.7 0c0 14.2 5.1 21.3 15.3 21.3 4.4.2 8.6-1.9 11.1-5.5 2.7-3.7 4.1-8.9 4.1-15.7 0-14-5.1-21-15.3-21-4.4-.1-8.6 1.9-11.2 5.5-2.7 3.6-4 8.8-4 15.4zm72 30.7v26.9h-15v-89.6h15v4.3c3.7-3.6 8.7-5.6 13.9-5.5 20.5 0 30.8 11.3 30.8 33.9 0 10.5-2.8 18.7-8.5 24.3s-13.4 8.5-23.2 8.5c-4.5 0-9-.9-13-2.8zm0-47v33.8c2.7 2.2 6.1 3.4 9.6 3.3 6.9 0 11.9-1.7 14.9-5s4.5-8.5 4.5-15.7c0-7.6-1.5-13-4.5-16.1s-8-4.7-14.9-4.7c-3.7.1-7.1 1.7-9.6 4.4zm99.6 48.6v-39.7c0-4-1.2-7.2-3.7-9.6-2.6-2.5-6.1-3.8-9.7-3.6-2.6 0-5.2.7-7.5 2-2.2 1-4 2.6-5.4 4.6v46.2h-15.3v-88.4l15.3-3.6v31.7c3.9-3.5 9.2-5.3 16-5.3 8.1 0 14.3 2.2 18.8 6.7s6.7 10.9 6.7 19.2v39.7l-15.2.1zm35.3 0v-52.1h-8.2v-12.3h23.4v64.4h-15.2zm7.8-89.3c4.9 0 8.9 3.9 9 8.8 0 4.9-3.9 8.9-8.8 9-4.9 0-8.9-3.9-9-8.8 0-2.4.9-4.7 2.6-6.4 1.6-1.7 3.8-2.7 6.2-2.6zm82.4 61.7h-46c.3 5.1 2 9.1 5.3 12s7.6 4.3 13.1 4.3c6.9 0 12.1-1.8 15.6-5.4l5.8 11.5c-5.3 4.3-13.2 6.4-23.7 6.4-9.8 0-17.6-2.9-23.3-8.6s-8.6-13.8-8.6-24.1c0-10.1 3.1-18.4 9.4-24.6 5.9-6.1 14.1-9.5 22.6-9.4 9.3 0 16.8 2.8 22.5 8.4 5.6 5.6 8.5 12.7 8.5 21.3-.2 2.7-.6 5.5-1.2 8.2zm-45.5-11.3h31.6c-1-9.4-6.3-14.1-15.6-14.1-8.6 0-13.9 4.7-16 14.1zM556 265v-14.1h31.8V265H556zm75.2 39c-1.6 4.3-5 7.8-10.3 10.7-5.7 2.9-12 4.3-18.4 4.2v-13.3c11.6 0 17.4-2.9 17.4-8.7 0-3.8-1.6-9.7-4.8-17.7L595 229.3h15.5l17.6 44.5 15.8-44.5h15.6L631.2 304zm33-42.7c0-9.8 2.8-17.8 8.5-24s13.2-9.3 22.4-9.3c9.8 0 17.4 3 22.8 8.9 5.4 5.9 8.1 14 8.1 24.3s-2.8 18.4-8.3 24.5-13.1 9.1-22.6 9.1c-9.8 0-17.4-3.1-22.8-9.2s-8.1-14.2-8.1-24.3zm15.7 0c0 14.2 5.1 21.3 15.3 21.3 4.4.1 8.6-1.9 11.2-5.5 2.7-3.7 4.1-8.9 4.1-15.7 0-14-5.1-21-15.3-21-4.4-.1-8.6 1.9-11.2 5.5-2.7 3.6-4.1 8.8-4.1 15.4zm99.7 32.4v-5.4c-2.6 2.1-5.6 3.6-8.8 4.6-3.3 1.2-6.8 1.8-10.3 1.9-14.9 0-22.4-7.9-22.4-23.8v-41.8h15v40.6c0 8.3 3.7 12.4 11.1 12.4 3.3 0 6.6-.9 9.5-2.6 2.9-1.8 4.9-3.8 5.8-6.1v-44.2h15v64.4h-14.9zm72.7-.1v-37.2c0-5.5-1.1-9.5-3.2-12s-5.5-3.8-10.3-3.8c-2.5.1-4.9.7-7.1 1.9-2.3 1.1-4.3 2.6-5.9 4.6v46.5h-15v-64.4h10.8l2.8 6c4.1-4.8 10.1-7.2 18.1-7.2 7.7 0 13.7 2.3 18.1 6.9s6.6 11 6.6 19.2v39.5h-14.9zm26.4 16.6l9.5-11.7c4.7 4.6 11 7.2 17.6 7.2 3.7.1 7.3-.5 10.7-1.9 2.8-1.3 4.2-3 4.2-5.3 0-3.8-3.1-5.7-9.3-5.7-2.5.1-5 .3-7.5.6s-5 .5-7.5.6c-10.3 0-15.5-3.7-15.5-11.1.1-2.3 1-4.6 2.6-6.3 1.6-2 3.7-3.5 6-4.5-7.3-4.8-11-11.5-11-20.3-.2-6.6 2.6-12.8 7.6-17.1 5.1-4.5 11.8-7 18.6-6.8 5-.2 10 .9 14.5 3.2l5.9-6.9 10.4 9.4-7.2 5.2c2.5 4 3.8 8.6 3.7 13.3 0 7.3-2.2 13.2-6.7 17.6-4.5 4.4-10.6 6.8-16.9 6.6-1.4 0-2.9-.1-4.3-.3l-2.5-.4c-1.1.3-2.2.7-3.2 1.3-1.9.9-2.8 1.8-2.8 2.7 0 1.6 1.4 2.4 4.1 2.4 2.1-.1 4.2-.4 6.3-.9 2.5-.5 5-.9 7.5-.9 14.6 0 21.9 5.9 21.9 17.6 0 6.5-2.9 11.6-8.8 15.3s-12.9 5.6-21.2 5.6c-9.6.2-19-2.8-26.7-8.5zm15-58.3c-.1 3.4 1 6.7 3.2 9.2 2.2 2.4 5.3 3.6 8.5 3.5 3.6 0 6.3-1.1 8.2-3.4s2.9-5.3 2.9-9.3c.1-3-1-6-3.1-8.2-2.1-2.2-5-3.5-8-3.4-6.1-.3-11.4 4.4-11.7 10.6v1z"/><path class="st1" d="M169.8 35.4c-31.1-18.5-61.4-.8-83.2 18.1-2.8 12.3-1.4 28.8-9 36.2-12-7.3-.3-26.3 0-38 23.7-16.7 66.2-58.8 92.2-16.3z"/><path class="st2" d="M125.6 64.4c-.8 4.4 3.3 3.9 1.8 9-5.8-.4-7.7 3.2-14.5 1.8-1.4-9.2 5.9-9.8 12.7-10.8z"/><path class="st3" d="M110.1 172.9c-7.1 12.7-16.8 27.8-19.9 39.1-39.2 18.9-67.7-15.1-66.9-44.2 18.3-.2 34.4-15.2 47-1.7 17-7.5 26.2 2.2 39.8 6.8zm-74.2 10.2c11.3 15.7 58.5 15.1 63.3-3.4-24.3 2.8-52-5.9-63.3 3.4z"/><path class="st2" d="M144.4 73.4c.3-.8.4-1.6.3-2.4 0 .8-.2 1.7-.6 2.4h.3z"/><path class="st4" d="M268.5 122.6s-2.3-9.7-10-38.3c-6.6-24.6-26.4-67.7-32.7-82-2.2-2.2-7.8 10.4-7.8 10.4s18.1 45.1 27.1 75.9c9.2 31.7 16.6 65.7 15.5 76.8-1.9 17.9-7.6 36.7-22.5 40.3-3 .4-6 .5-9 .5-2.3.2-16.7-4.3-17.6-4.5-11.6-2.5-25.5 2.6-30.1 10.7-1.9 2.5-2.6 6.3-2.9 9.2-1.9 21 21.4 23.9 27 43.2 1.7 5.8 2.3 10.9-.9 16-13.5 16-32.6 3.2-37.1-5.2-2.2-4.2-4.4-7.9-5.1-9.2-.4-.9-14.2 5.8-14.2 6.4 1.9 6.2 12.1 17.7 20.9 23 15.9 9.7 36 8.5 45.6-7.4 4.2-5.7 5.7-13.2 4.7-20.6-2.3-18.2-20-22.9-27.1-36.1-1.8-5.7-1.3-10.9.8-14.8 4.4-5.3 11.6-6.6 21.6-2.2 19.1 11.7 42.1-.5 52.8-18.4 15.7-26.4 1-73.7 1-73.7z"/><path class="st1" d="M209.6 59c-1.9 4.9-19.1 13.3-25.3 1.8 2.6-13.4 15.5-31.4 9-38-10.8 8.5-15.2 23.4-21.7 36.2-30.6-16.9-59.8.3-70.6 23.5 8.5 1.9 9.1-4.2 12.7-7.2 5.8 26.3 59.1 18.6 48.8-10.8 21.2 1.2 16.9 34.3 12.7 52.5-11.8 50.8-60 125.4-106.7 132.1-41.5 6-40.7-28.6-65.1-34.4 17.7 26.4 33 52.8 76 43.4 59.4-12.9 117.7-99.3 108.6-175.5 14.3 6.1 27.3-9.7 21.6-23.6z"/></svg>