<svg id="Layer_1" data-name="Layer 1" xmlns="http://www.w3.org/2000/svg" viewBox="0 0 48 32.43"><defs><style>.cls-1{fill:#fff}</style></defs><title>noun_132230</title><path class="cls-1" d="M24 24.41L45 8.19a4.92 4.92 0 0 0-2-.41H4.95a4.91 4.91 0 0 0-2 .41zM1.42 38.47L20.1 24 1.42 9.61a1 1 0 0 1-.14-.16A4.91 4.91 0 0 0 0 12.73v22.53a4.91 4.91 0 0 0 1.31 3.33 1 1 0 0 1 .11-.12zm45.3-29.02a1 1 0 0 1-.14.16L27.9 24l18.68 14.47a.92.92 0 0 1 .1.12A4.91 4.91 0 0 0 48 35.27V12.73a4.91 4.91 0 0 0-1.28-3.28zM26.19 25.36l-1.55 1.2a1 1 0 0 1-1.27 0l-1.55-1.2L3.06 39.84a4.9 4.9 0 0 0 1.88.38h38.1a4.9 4.9 0 0 0 1.89-.38z" transform="translate(0 -7.79)"/></svg>